<?xml version="1.0" encoding="UTF-8" standalone="no"?>
<!-- Created with Inkscape (http://www.inkscape.org/) -->

<svg
   xmlns:dc="http://purl.org/dc/elements/1.1/"
   xmlns:cc="http://creativecommons.org/ns#"
   xmlns:rdf="http://www.w3.org/1999/02/22-rdf-syntax-ns#"
   xmlns:svg="http://www.w3.org/2000/svg"
   xmlns="http://www.w3.org/2000/svg"
   xmlns:sodipodi="http://sodipodi.sourceforge.net/DTD/sodipodi-0.dtd"
   xmlns:inkscape="http://www.inkscape.org/namespaces/inkscape"
   width="500"
   height="750"
   viewBox="0 0 500.00001 750.00001"
   id="svg2"
   version="1.1"
   inkscape:version="0.91 r13725"
   sodipodi:docname="spacesuitblack.svg">
  <defs
     id="defs4" />
  <sodipodi:namedview
     id="base"
     pagecolor="#ffffff"
     bordercolor="#666666"
     borderopacity="1.0"
     inkscape:pageopacity="0.0"
     inkscape:pageshadow="2"
     inkscape:zoom="0.24748737"
     inkscape:cx="560.41345"
     inkscape:cy="946.71464"
     inkscape:document-units="px"
     inkscape:current-layer="layer1"
     showgrid="false"
     inkscape:snap-bbox="true"
     inkscape:bbox-paths="true"
     inkscape:bbox-nodes="true"
     inkscape:object-paths="true"
     inkscape:snap-intersection-paths="false"
     inkscape:object-nodes="true"
     inkscape:snap-smooth-nodes="true"
     showguides="false"
     inkscape:snap-others="false"
     inkscape:snap-nodes="true"
     inkscape:window-width="1920"
     inkscape:window-height="1022"
     inkscape:window-x="0"
     inkscape:window-y="0"
     inkscape:window-maximized="1"
     units="px">
    <inkscape:grid
       type="xygrid"
       id="grid3336" />
  </sodipodi:namedview>
  <metadata
     id="metadata7">
    <rdf:RDF>
      <cc:Work
         rdf:about="">
        <dc:format>image/svg+xml</dc:format>
        <dc:type
           rdf:resource="http://purl.org/dc/dcmitype/StillImage" />
        <dc:title></dc:title>
      </cc:Work>
    </rdf:RDF>
  </metadata>
  <g
     inkscape:label="Layer 1"
     inkscape:groupmode="layer"
     id="layer1"
     transform="translate(0,-302.36216)">
    <circle
       style="fill:#000000;fill-opacity:1;fill-rule:evenodd;stroke:none;stroke-width:44.80184937;stroke-linecap:round;stroke-linejoin:miter;stroke-miterlimit:4;stroke-dasharray:none"
       id="path3338"
       cy="514.3172"
       cx="112.94048"
       transform="matrix(0.95431018,-0.2988178,0.2988178,0.95431018,0,0)"
       r="75.215508" />
    <path
       style="fill:#000000;fill-rule:evenodd;stroke:none;stroke-width:1px;stroke-linecap:butt;stroke-linejoin:miter;stroke-opacity:1"
       d="m 177.58022,774.47085 42.70235,86.1772 -34.55799,73.69359 -11.32648,14.02537 34.31638,25.93041 52.72867,-116.05898 -61.49926,-96.00958 z"
       id="path4175"
       inkscape:connector-curvature="0"
       sodipodi:nodetypes="cccccccc" />
    <path
       style="fill:#000000;fill-rule:evenodd;stroke:none;stroke-width:1px;stroke-linecap:butt;stroke-linejoin:miter;stroke-opacity:1"
       d="M 289.5925,529.82161 340,622.36216 c 0,0 54.02364,15.9138 60,35 l -20,30 c -10,10 -75,-25 -75,-25 l -5,-10 c 0.49178,29.72228 -17.12967,57.71724 -36.24258,79.40635 l 45.40124,111.52904 -0.57857,31.61749 -55.42756,90.70713 c 0,0 15.51945,16.09803 24.48399,44.72733 2.98817,9.5431 -16.09803,15.5195 -16.09803,15.5195 l -68.63275,-51.86086 22.65295,-28.05074 26.79826,-81.7426 c 0,0 -62.07783,-64.3921 -71.04237,-93.02141 -26.8936,-85.88792 36.24603,-252.3613 36.24603,-252.3613 z"
       id="path3365"
       inkscape:connector-curvature="0"
       sodipodi:nodetypes="ccccccccccsccccccc" />
    <path
       style="fill:#000000;fill-rule:evenodd;stroke:none;stroke-width:1px;stroke-linecap:butt;stroke-linejoin:miter;stroke-opacity:1"
       d="m 271.80644,724.00878 6.55492,-12.53128 -92.77979,-28.58164 -6.55493,12.53128 z"
       id="path4198"
       inkscape:connector-curvature="0"
       sodipodi:nodetypes="ccccc" />
    <path
       style="fill:#000000;fill-rule:evenodd;stroke:none;stroke-width:1px;stroke-linecap:butt;stroke-linejoin:miter;stroke-opacity:1"
       d="m 263.03258,1030.6405 8.04901,-7.7597 -93.40603,-80.77943 -6.55492,12.53128 20.29101,14.60394 -3.27746,6.26564"
       id="path4171"
       inkscape:connector-curvature="0"
       sodipodi:nodetypes="cccccc" />
    <path
       style="fill:#808080;fill-opacity:1;fill-rule:evenodd;stroke:none;stroke-width:1px;stroke-linecap:butt;stroke-linejoin:miter;stroke-opacity:1"
       d="m 80,732.36216 -10,90 45,-80 z"
       id="path3354"
       inkscape:connector-curvature="0"
       sodipodi:nodetypes="cccc" />
    <path
       style="fill:#808080;fill-rule:evenodd;stroke:none;stroke-width:1px;stroke-linecap:butt;stroke-linejoin:miter;stroke-opacity:1"
       d="m 90,722.36216 20,15 -25,40 z"
       id="path3356"
       inkscape:connector-curvature="0"
       sodipodi:nodetypes="cccc" />
    <path
       style="fill:#000000;fill-opacity:1;fill-rule:evenodd;stroke:none;stroke-width:1px;stroke-linecap:butt;stroke-linejoin:miter;stroke-opacity:1"
       d="m 220.09189,525.38702 -63.23497,-1.15714 -70.94702,74.60911 -21.40048,132.44629 59.66822,23.23152 28.62931,-8.96454 22.07438,3.56675 z"
       id="path4173"
       inkscape:connector-curvature="0"
       sodipodi:nodetypes="cccccccc" />
    <path
       style="fill:#808080;fill-rule:evenodd;stroke:none;stroke-width:1px;stroke-linecap:butt;stroke-linejoin:miter;stroke-opacity:1"
       d="m 252.86522,459.56663 -37.70187,-19.72127 4.93032,-9.42547 37.70186,19.72127"
       id="path3353"
       inkscape:connector-curvature="0"
       sodipodi:nodetypes="cccc" />
    <path
       style="fill:#808080;fill-opacity:1;fill-rule:evenodd;stroke:none;stroke-width:1px;stroke-linecap:butt;stroke-linejoin:miter;stroke-opacity:1"
       d="m 174.88133,749.11901 -22.07438,-3.56675 -40.00345,-60.82535 7.71206,-75.76625 36.34136,-84.73078 63.23497,1.15714 z"
       id="path4177"
       inkscape:connector-curvature="0"
       sodipodi:nodetypes="ccccccc" />
    <path
       transform="matrix(0.95431018,-0.2988178,0.2988178,0.95431018,0,0)"
       id="circle4223"
       style="fill:#808080;fill-opacity:1;fill-rule:evenodd;stroke:none;stroke-width:44.80184937;stroke-linecap:round;stroke-linejoin:miter;stroke-miterlimit:4;stroke-dasharray:none"
       sodipodi:type="arc"
       sodipodi:cx="112.94048"
       sodipodi:cy="514.3172"
       sodipodi:rx="75.215508"
       sodipodi:ry="75.215508"
       sodipodi:start="5.1491937"
       sodipodi:end="1.2831588"
       d="m 144.76013,446.16382 a 75.215508,75.215508 0 0 1 43.18676,73.75802 75.215508,75.215508 0 0 1 -53.6687,66.52077 L 112.94048,514.3172 Z" />
    <circle
       style="fill:#808080;fill-opacity:1;fill-rule:evenodd;stroke:none;stroke-width:40;stroke-linecap:round;stroke-linejoin:miter;stroke-miterlimit:4;stroke-dasharray:none"
       id="path3349"
       cx="111.50671"
       cy="514.12976"
       transform="matrix(0.95431018,-0.2988178,0.2988178,0.95431018,0,0)"
       r="15.043101" />
    <path
       style="fill:#ffffff;fill-rule:evenodd;stroke:none;stroke-width:1px;stroke-linecap:butt;stroke-linejoin:miter;stroke-opacity:1"
       d="m 287.37745,393.58838 c 0,0 3.37136,10.76684 -6.48928,29.61776 35.67188,0.65276 45.56837,44.8439 45.56837,44.8439 12.97856,-59.23554 -39.07909,-74.46166 -39.07909,-74.46166 z"
       id="path3357"
       inkscape:connector-curvature="0"
       sodipodi:nodetypes="cccc" />
    <path
       style="fill:#000000;fill-rule:evenodd;stroke:none;stroke-width:1px;stroke-linecap:butt;stroke-linejoin:miter;stroke-opacity:1"
       d="M 207.56061,518.83209 205,507.36216 l 90,17 -5.4075,5.45945 z"
       id="path4202"
       inkscape:connector-curvature="0"
       sodipodi:nodetypes="ccccc" />
    <path
       style="fill:#000000;fill-opacity:1;fill-rule:evenodd;stroke:none;stroke-width:1px;stroke-linecap:butt;stroke-linejoin:miter;stroke-opacity:1"
       d="m 400,657.36216 c 15,-5 45,10 25,15 25,-10 10,50 -45,15 z"
       id="path4204"
       inkscape:connector-curvature="0"
       sodipodi:nodetypes="cccc" />
    <circle
       r="75.215508"
       transform="matrix(0.95431018,-0.2988178,0.2988178,0.95431018,0,0)"
       cx="2912.9065"
       cy="636.58325"
       id="circle3399"
       style="fill:#000000;fill-opacity:1;fill-rule:evenodd;stroke:none;stroke-width:44.80184937;stroke-linecap:round;stroke-linejoin:miter;stroke-miterlimit:4;stroke-dasharray:none" />
    <path
       sodipodi:nodetypes="cccccccc"
       inkscape:connector-curvature="0"
       id="path3401"
       d="m 2886.1516,54.47085 42.7024,86.1772 -34.558,73.69359 -11.3265,14.02537 34.3164,25.93041 52.7287,-116.05898 -61.4993,-96.00958 z"
       style="fill:#000000;fill-rule:evenodd;stroke:none;stroke-width:1px;stroke-linecap:butt;stroke-linejoin:miter;stroke-opacity:1" />
    <path
       sodipodi:nodetypes="ccccccccccsccccccc"
       inkscape:connector-curvature="0"
       id="path3403"
       d="m 2998.1639,-190.17839 50.4075,92.54055 c 0,0 54.0237,15.9138 60,35 l -20,30 c -10,10 -75,-25 -75,-25 l -5,-10 c 0.4918,29.72228 -17.1296,57.7172404 -36.2426,79.40635 l 45.4013,111.52904 -0.5786,31.61749 -55.4275,90.70713 c 0,0 15.5194,16.09803 24.4839,44.72733 2.9882,9.5431 -16.098,15.5195 -16.098,15.5195 l -68.6327,-51.86086 22.6529,-28.05074 26.7983,-81.7426 c 0,0 -62.0779,-64.3921 -71.0424,-93.02141 -26.8936,-85.88792 36.246,-252.3613 36.246,-252.3613 z"
       style="fill:#000000;fill-rule:evenodd;stroke:none;stroke-width:1px;stroke-linecap:butt;stroke-linejoin:miter;stroke-opacity:1" />
    <path
       sodipodi:nodetypes="ccccc"
       inkscape:connector-curvature="0"
       id="path3405"
       d="m 2980.3779,4.0087804 6.5549,-12.53128 -92.7798,-28.5816404 -6.5549,12.53128 z"
       style="fill:#000000;fill-rule:evenodd;stroke:none;stroke-width:1px;stroke-linecap:butt;stroke-linejoin:miter;stroke-opacity:1" />
    <path
       sodipodi:nodetypes="cccccc"
       inkscape:connector-curvature="0"
       id="path3407"
       d="m 2971.604,310.6405 8.049,-7.7597 -93.406,-80.77943 -6.5549,12.53128 20.291,14.60394 -3.2775,6.26564"
       style="fill:#000000;fill-rule:evenodd;stroke:none;stroke-width:1px;stroke-linecap:butt;stroke-linejoin:miter;stroke-opacity:1" />
    <path
       sodipodi:nodetypes="cccc"
       inkscape:connector-curvature="0"
       id="path3409"
       d="m 2788.5714,12.36216 -10,90 45,-80 z"
       style="fill:#808080;fill-opacity:1;fill-rule:evenodd;stroke:none;stroke-width:1px;stroke-linecap:butt;stroke-linejoin:miter;stroke-opacity:1" />
    <path
       sodipodi:nodetypes="cccc"
       inkscape:connector-curvature="0"
       id="path3411"
       d="m 2798.5714,2.3621604 20,14.9999996 -25,40 z"
       style="fill:#808080;fill-rule:evenodd;stroke:none;stroke-width:1px;stroke-linecap:butt;stroke-linejoin:miter;stroke-opacity:1" />
    <path
       sodipodi:nodetypes="cccccccc"
       inkscape:connector-curvature="0"
       id="path3413"
       d="m 2928.6633,-194.61298 -63.235,-1.15714 -70.947,74.60911 -21.4005,132.44629 59.6683,23.23152 28.6293,-8.96454 22.0744,3.56675 z"
       style="fill:#000000;fill-opacity:1;fill-rule:evenodd;stroke:none;stroke-width:1px;stroke-linecap:butt;stroke-linejoin:miter;stroke-opacity:1" />
    <path
       sodipodi:nodetypes="cccc"
       inkscape:connector-curvature="0"
       id="path3415"
       d="m 2961.4366,-260.43337 -37.7018,-19.72127 4.9303,-9.42547 37.7019,19.72127"
       style="fill:#808080;fill-rule:evenodd;stroke:none;stroke-width:1px;stroke-linecap:butt;stroke-linejoin:miter;stroke-opacity:1" />
    <path
       sodipodi:nodetypes="ccccccc"
       inkscape:connector-curvature="0"
       id="path3417"
       d="m 2883.4528,29.11901 -22.0744,-3.56675 -40.0035,-60.82535 7.7121,-75.76625 36.3413,-84.73078 63.235,1.15714 z"
       style="fill:#808080;fill-opacity:1;fill-rule:evenodd;stroke:none;stroke-width:1px;stroke-linecap:butt;stroke-linejoin:miter;stroke-opacity:1" />
    <path
       d="m 2944.7261,568.42988 a 75.215508,75.215508 0 0 1 43.1868,73.75802 75.215508,75.215508 0 0 1 -53.6687,66.52076 l -21.3377,-72.12541 z"
       sodipodi:end="1.2831588"
       sodipodi:start="5.1491937"
       sodipodi:ry="75.215508"
       sodipodi:rx="75.215508"
       sodipodi:cy="636.58325"
       sodipodi:cx="2912.9065"
       sodipodi:type="arc"
       style="fill:#808080;fill-opacity:1;fill-rule:evenodd;stroke:none;stroke-width:44.80184937;stroke-linecap:round;stroke-linejoin:miter;stroke-miterlimit:4;stroke-dasharray:none"
       id="path3419"
       transform="matrix(0.95431018,-0.2988178,0.2988178,0.95431018,0,0)" />
    <circle
       r="15.043101"
       transform="matrix(0.95431018,-0.2988178,0.2988178,0.95431018,0,0)"
       cy="636.39581"
       cx="2911.4729"
       id="circle3421"
       style="fill:#808080;fill-opacity:1;fill-rule:evenodd;stroke:none;stroke-width:40;stroke-linecap:round;stroke-linejoin:miter;stroke-miterlimit:4;stroke-dasharray:none" />
    <path
       sodipodi:nodetypes="cccc"
       inkscape:connector-curvature="0"
       id="path3423"
       d="m 2995.9489,-326.41162 c 0,0 3.3713,10.76684 -6.4893,29.61776 35.6719,0.65276 45.5684,44.8439 45.5684,44.8439 12.9785,-59.23554 -39.0791,-74.46166 -39.0791,-74.46166 z"
       style="fill:#ffffff;fill-rule:evenodd;stroke:none;stroke-width:1px;stroke-linecap:butt;stroke-linejoin:miter;stroke-opacity:1" />
    <path
       sodipodi:nodetypes="ccccc"
       inkscape:connector-curvature="0"
       id="path3425"
       d="m 2916.132,-201.16791 -2.5606,-11.46993 90,17 -5.4075,5.45945 z"
       style="fill:#000000;fill-rule:evenodd;stroke:none;stroke-width:1px;stroke-linecap:butt;stroke-linejoin:miter;stroke-opacity:1" />
    <path
       sodipodi:nodetypes="cccc"
       inkscape:connector-curvature="0"
       id="path3427"
       d="m 3108.5714,-62.63784 c 15,-5 45,10 25,15 25,-10 10,50.0000004 -45,15 z"
       style="fill:#000000;fill-opacity:1;fill-rule:evenodd;stroke:none;stroke-width:1px;stroke-linecap:butt;stroke-linejoin:miter;stroke-opacity:1" />
  </g>
</svg>
